<svg xmlns="http://www.w3.org/2000/svg" viewBox="0 0 450 633.88">
    <g id="Слой_2" data-name="Слой 2">
        <g id="Слой_1-2" data-name="Слой 1">
            <rect fill="none" stroke="currentColor" stroke-miterlimit="10" stroke-width="3px"
                  x="201.5" y="385.38" width="47" height="447" rx="14.56"
                  transform="translate(833.88 383.88) rotate(90)"/>
            <rect fill="none" stroke="currentColor" stroke-miterlimit="10" stroke-width="3px"
                  x="201.5" y="322.99" width="47" height="447" rx="14.56"
                  transform="translate(771.49 321.49) rotate(90)"/>
            <rect fill="none" stroke="currentColor" stroke-miterlimit="10" stroke-width="3px"
                  x="201.5" y="260.61" width="47" height="447" rx="14.56"
                  transform="translate(709.11 259.11) rotate(90)"/>
            <rect fill="none" stroke="currentColor" stroke-miterlimit="10" stroke-width="3px"
                  x="201.5" y="198.22" width="47" height="447" rx="14.56"
                  transform="translate(646.72 196.72) rotate(90)"/>
            <rect fill="none" stroke="currentColor" stroke-miterlimit="10" stroke-width="3px"
                  x="201.5" y="135.83" width="47" height="447" rx="14.56"
                  transform="translate(584.33 134.33) rotate(90)"/>
            <rect fill="none" stroke="currentColor" stroke-miterlimit="10" stroke-width="3px"
                  x="201.5" y="73.44" width="47" height="447" rx="14.56"
                  transform="translate(521.94 71.94) rotate(90)"/>
            <rect fill="none" stroke="currentColor" stroke-miterlimit="10" stroke-width="3px"
                  x="201.5" y="11.05" width="47" height="447" rx="14.56"
                  transform="translate(459.55 9.55) rotate(90)"/>
            <rect fill="none" stroke="currentColor" stroke-miterlimit="10" stroke-width="3px"
                  x="201.5" y="-51.34" width="47" height="447" rx="14.56"
                  transform="translate(397.16 -52.84) rotate(90)"/>
            <rect fill="none" stroke="currentColor" stroke-miterlimit="10" stroke-width="3px"
                  x="201.5" y="-113.72" width="47" height="447" rx="14.56"
                  transform="translate(334.78 -115.22) rotate(90)"/>
            <rect fill="none" stroke="currentColor" stroke-miterlimit="10" stroke-width="3px"
                  x="211.5" y="-166.11" width="27" height="447" rx="11.12"
                  transform="translate(282.39 -167.61) rotate(90)"/>
            <rect fill="none" stroke="currentColor" stroke-miterlimit="10" stroke-width="3px"
                  x="211.5" y="-208.5" width="27" height="447" rx="11.12"
                  transform="translate(240 -210) rotate(90)"/>
        </g>
    </g>
</svg>